<svg width="82" height="82" viewBox="0 0 82 82" fill="none" xmlns="http://www.w3.org/2000/svg">
<ellipse cx="41" cy="41.1335" rx="41" ry="40.8665" fill="#F0FF80" fill-opacity="0.05"/>
<path fill-rule="evenodd" clip-rule="evenodd" d="M37.2053 33.405H42.6872V36.1267C43.4768 34.5613 45.5019 33.1549 48.5439 33.1549C54.3756 33.1549 55.7601 36.2708 55.7601 41.9879V52.5761H49.8561V43.2899C49.8561 40.0342 49.0665 38.1981 47.0561 38.1981C44.268 38.1981 43.1093 40.1769 43.1093 43.2884V52.5761H37.2053V33.405ZM27.0814 52.326H32.9854V33.1549H27.0814V52.326ZM33.8312 26.9038C33.8314 27.397 33.7333 27.8854 33.5425 28.3405C33.3517 28.7956 33.072 29.2084 32.7198 29.5549C32.006 30.2619 31.0398 30.6577 30.0334 30.6553C29.0289 30.6546 28.0649 30.2598 27.3501 29.5563C26.9991 29.2087 26.7204 28.7955 26.5299 28.3403C26.3394 27.8851 26.241 27.3969 26.2401 26.9038C26.2401 25.9078 26.6386 24.9544 27.3515 24.2512C28.0658 23.5467 29.0301 23.1518 30.0349 23.1522C31.0415 23.1522 32.0068 23.548 32.7198 24.2512C33.4312 24.9544 33.8312 25.9078 33.8312 26.9038Z" fill="#F0FF80"/>
</svg>
