<svg width="82" height="82" viewBox="0 0 82 82" fill="none" xmlns="http://www.w3.org/2000/svg">
<ellipse cx="41" cy="41.1335" rx="41" ry="40.8665" fill="#F0FF80" fill-opacity="0.05"/>
<path d="M45.002 42.6886C45.002 43.619 44.7252 44.5285 44.2067 45.3021C43.6881 46.0757 42.951 46.6787 42.0886 47.0347C41.2262 47.3908 40.2772 47.4839 39.3617 47.3024C38.4462 47.1209 37.6053 46.6729 36.9453 46.015C36.2852 45.3571 35.8357 44.5189 35.6536 43.6063C35.4715 42.6938 35.565 41.748 35.9222 40.8884C36.2794 40.0288 36.8843 39.2941 37.6604 38.7772C38.4366 38.2603 39.349 37.9844 40.2825 37.9844C41.533 37.9883 42.7312 38.4852 43.6154 39.3665C44.4997 40.2479 44.9981 41.4422 45.002 42.6886ZM55.0311 36.2204V49.1569C55.0311 51.3402 54.1609 53.4341 52.612 54.978C51.0631 56.5218 48.9624 57.3892 46.7719 57.3892H33.7931C31.6026 57.3892 29.5018 56.5218 27.9529 54.978C26.404 53.4341 25.5339 51.3402 25.5339 49.1569V36.2204C25.5339 34.037 26.404 31.9431 27.9529 30.3992C29.5018 28.8554 31.6026 27.988 33.7931 27.988H46.7719C48.9624 27.988 51.0631 28.8554 52.612 30.3992C54.1609 31.9431 55.0311 34.037 55.0311 36.2204ZM47.3618 42.6886C47.3618 41.293 46.9466 39.9287 46.1687 38.7684C45.3908 37.608 44.2852 36.7035 42.9916 36.1695C41.698 35.6354 40.2746 35.4956 38.9014 35.7679C37.5281 36.0402 36.2667 36.7122 35.2766 37.6991C34.2866 38.6859 33.6123 39.9432 33.3392 41.312C33.066 42.6808 33.2062 44.0996 33.742 45.3889C34.2779 46.6783 35.1852 47.7803 36.3494 48.5557C37.5136 49.331 38.8823 49.7449 40.2825 49.7449C42.16 49.7449 43.9607 49.0015 45.2883 47.6781C46.616 46.3548 47.3618 44.56 47.3618 42.6886ZM49.7216 35.0443C49.7216 34.6954 49.6178 34.3543 49.4233 34.0642C49.2289 33.7741 48.9524 33.548 48.629 33.4145C48.3057 33.281 47.9498 33.2461 47.6065 33.3141C47.2632 33.3822 46.9478 33.5502 46.7003 33.7969C46.4528 34.0436 46.2842 34.358 46.2159 34.7002C46.1476 35.0424 46.1827 35.397 46.3167 35.7194C46.4506 36.0417 46.6774 36.3172 46.9685 36.5111C47.2595 36.7049 47.6017 36.8084 47.9518 36.8084C48.4212 36.8084 48.8713 36.6225 49.2032 36.2917C49.5351 35.9609 49.7216 35.5122 49.7216 35.0443Z" fill="#F0FF80"/>
</svg>
