<svg width="82" height="82" viewBox="0 0 82 82" fill="none" xmlns="http://www.w3.org/2000/svg">
<ellipse cx="41" cy="41.1335" rx="41" ry="40.8665" fill="#F0FF80" fill-opacity="0.05"/>
<path d="M55.3499 36.2822V47.9279C55.35 49.1153 54.8942 50.2577 54.0761 51.1208C53.258 51.9838 52.1395 52.5021 50.9502 52.5693L50.6862 52.5765H31.3137C30.1224 52.5766 28.9763 52.1223 28.1104 51.3068C27.2445 50.4914 26.7245 49.3766 26.6571 48.1911L26.6499 47.9279V36.2822L40.5005 43.514C40.6546 43.5944 40.826 43.6364 40.9999 43.6364C41.1738 43.6364 41.3452 43.5944 41.4993 43.514L55.3499 36.2822ZM31.3137 29.6913H50.6862C51.8422 29.6911 52.957 30.1189 53.8145 30.8917C54.672 31.6645 55.211 32.7271 55.3269 33.8736L40.9999 41.3542L26.6729 33.8736C26.7841 32.7727 27.2857 31.7474 28.0874 30.9821C28.8891 30.2168 29.9385 29.7616 31.0467 29.6984L31.3137 29.6913H50.6862H31.3137Z" fill="#F0FF80"/>
</svg>
