<svg width="82" height="82" viewBox="0 0 82 82" fill="none" xmlns="http://www.w3.org/2000/svg">
<ellipse cx="41" cy="41.1335" rx="41" ry="40.8665" fill="#F0FF80" fill-opacity="0.05"/>
<path d="M44.8061 26.3393C42.7994 26.3393 41.0987 26.9501 39.8994 28.1297C38.6997 29.3096 38.0109 31.0495 38.0109 33.2897V37.0298H33.6199H33.5373V37.1124V42.3213V42.4039H33.6199H38.0206V55.6349V55.7175H38.1032H43.4969H43.5795V55.6349V42.4136H47.9997H48.0724L48.0817 42.3415L48.751 37.1327L48.763 37.0395H48.6691H43.5795V33.8043C43.5795 33.0564 43.6851 32.4493 44.0406 32.0278C44.3936 31.6094 45.0102 31.3547 46.0814 31.3547H48.8238H48.9064V31.2721V26.6281V26.5538L48.8326 26.5459C47.4952 26.4031 46.151 26.3341 44.8061 26.3393ZM44.8061 26.3393C44.8061 26.3393 44.8062 26.3393 44.8062 26.3393V26.4219L44.8059 26.3393C44.806 26.3393 44.806 26.3393 44.8061 26.3393Z" fill="#F0FF80" stroke="#F0FF80" stroke-width="0.165208"/>
</svg>
